<svg xmlns="http://www.w3.org/2000/svg" width="32" height="32" viewBox="0 0 32 32" fill="none">
<mask id="mask0_4366_41936" style="mask-type:alpha" maskUnits="userSpaceOnUse" x="0" y="0" width="32" height="32">
<rect width="32" height="32" fill="#D9D9D9"/>
</mask>
<g mask="url(#mask0_4366_41936)">
<path d="M31.5615 19.4753C31.5615 22.2668 29.2985 24.5298 26.5075 24.5298H15.9252L21.8356 15.8836C22.2361 15.2974 21.8162 14.502 21.1063 14.502H15.2852C14.7864 14.502 14.4699 13.9673 14.7099 13.5299L18.1008 7.34983C18.105 7.33613 18.1107 7.32291 18.1178 7.31015L19.6458 4.53752C19.8825 4.10864 20.5352 4.3911 20.3845 4.85682L19.1602 8.64262C20.0459 8.17312 21.0557 7.90766 22.1275 7.90766C25.6337 7.90766 28.4767 10.7502 28.4767 14.2568C28.4767 14.4425 28.4686 14.6267 28.4526 14.8085C30.2782 15.5704 31.5615 17.3729 31.5615 19.4753Z" fill="#1E56F5"/>
<path d="M15.613 18.1655L12.9976 24.5302H12.9924L11.7965 27.429C11.54 28.0501 10.6076 27.7865 10.7143 27.1234L11.1328 24.5307H6.75992C3.30239 24.5298 0.5 21.7274 0.5 18.2698C0.5 15.4665 2.3426 13.0935 4.88331 12.2962C4.82994 11.9414 4.80207 11.5782 4.80207 11.2088C4.8016 7.22749 8.02909 4 12.0109 4C13.7406 4 15.3277 4.60885 16.5699 5.62485L9.465 16.371C9.24253 16.7069 9.47681 17.1565 9.87925 17.1669L15.0523 17.3044C15.4887 17.3162 15.7783 17.7611 15.6125 18.165L15.613 18.1655Z" fill="#1E56F5"/>
</g>
</svg>